<?xml version="1.0" encoding="utf-8"?>
<!-- Generator: Adobe Illustrator 25.4.1, SVG Export Plug-In . SVG Version: 6.00 Build 0)  -->
<svg version="1.1" id="Ebene_1" xmlns="http://www.w3.org/2000/svg" xmlns:xlink="http://www.w3.org/1999/xlink" x="0px" y="0px"
	 viewBox="0 0 38 38" style="enable-background:new 0 0 38 38;" xml:space="preserve">
<style type="text/css">
	.st0{fill:#11769D;}
	.st1{fill:#FFFFFF;}
</style>
<circle id="Oval" class="st0" cx="19" cy="19" r="19"/>
<path id="copy" class="st1" d="M25.7,25.1c0.4,0,0.8-0.1,1.1-0.2s0.6-0.3,0.8-0.5c0.2-0.2,0.4-0.5,0.5-0.8c0.1-0.3,0.2-0.7,0.2-1.1
	v-7.9h-4.6c-0.4,0-0.8-0.1-1-0.4s-0.4-0.6-0.4-1V8.3h-4.5c-0.8,0-1.5,0.2-1.9,0.7c-0.4,0.4-0.7,1.1-0.7,1.9v0.5h1.2
	c0.6,0,1.1,0.1,1.6,0.3c0.5,0.2,1,0.5,1.4,1l4.7,4.7c0.5,0.5,0.8,1,0.9,1.4s0.2,1,0.2,1.6v4.8H25.7z M28.2,13.5
	c0-0.1-0.1-0.3-0.2-0.4c-0.1-0.1-0.2-0.3-0.4-0.4l-3.5-3.6C24,9,23.8,8.8,23.7,8.8c-0.1-0.1-0.3-0.1-0.4-0.2l0,4.4
	c0,0.3,0.2,0.5,0.5,0.5H28.2z M21.6,29.3c0.9,0,1.5-0.2,1.9-0.7s0.6-1.1,0.6-2V20h-5.8c-0.5,0-0.9-0.1-1.2-0.4
	c-0.3-0.3-0.4-0.7-0.4-1.2v-6h-3c-0.9,0-1.5,0.2-1.9,0.7s-0.6,1.1-0.6,2v11.6c0,0.9,0.2,1.5,0.6,2c0.4,0.4,1.1,0.7,1.9,0.7H21.6z
	 M24.1,18.9c0-0.2-0.1-0.3-0.2-0.5c-0.1-0.2-0.2-0.3-0.4-0.5l-4.5-4.5c-0.2-0.2-0.4-0.3-0.5-0.5c-0.2-0.1-0.3-0.2-0.5-0.3v5.8
	c0,0.3,0.1,0.4,0.4,0.4H24.1z"/>
</svg>
