<?xml version="1.0" encoding="utf-8"?>
<svg version="1.1" id="Ebene_1" xmlns="http://www.w3.org/2000/svg" xmlns:xlink="http://www.w3.org/1999/xlink" x="0px" y="0px" viewBox="0 0 40 40" style="enable-background:new 0 0 40 40;" xml:space="preserve">
  <style type="text/css">
	.st0{fill:#11769d;}
</style>
  <path id="path-1_00000080905547539336203510000007083251170388875667_" class="st0" d="M17.3,14.3c0.3,0.3,0.3,0.8,0,1l-3.4,3.4
	h13.1c0.4,0,0.7,0.3,0.7,0.7s-0.3,0.7-0.7,0.7H13.8l3.4,3.4c0.3,0.3,0.3,0.8,0,1c-0.3,0.3-0.7,0.3-1,0L11.6,20
	c-0.1-0.1-0.1-0.1-0.2-0.2c0-0.1-0.1-0.2-0.1-0.3c0-0.2,0.1-0.4,0.2-0.5l4.7-4.7C16.5,14,17,14,17.3,14.3L17.3,14.3z" />
</svg>
