<?xml version="1.0" encoding="utf-8"?>
<svg version="1.1" id="Ebene_1" xmlns="http://www.w3.org/2000/svg" xmlns:xlink="http://www.w3.org/1999/xlink" x="0px" y="0px" viewBox="0 0 40 40" style="enable-background:new 0 0 40 40;" xml:space="preserve">
  <style type="text/css">
	.st0{fill:#ffffff;}
</style>
  <path id="path-3_00000183243747000968872080000015361232650921909895_" class="st0" d="M27.7,18.3c-0.3,0.3-0.3,0.8,0,1l3.4,3.4
	H18.1c-0.4,0-0.7,0.3-0.7,0.7s0.3,0.7,0.7,0.7h13.1l-3.4,3.4c-0.3,0.3-0.3,0.8,0,1c0.3,0.3,0.7,0.3,1,0l4.7-4.7
	c0.1-0.1,0.1-0.1,0.2-0.2c0-0.1,0.1-0.2,0.1-0.3c0-0.2-0.1-0.4-0.2-0.5l-4.7-4.7C28.5,18,28,18,27.7,18.3L27.7,18.3z" />
  <path id="path-1_00000088114324680418006070000013385863671930761659_" class="st0" d="M12.3,11.3c0.3,0.3,0.3,0.8,0,1l-3.4,3.4
	h13.1c0.4,0,0.7,0.3,0.7,0.7s-0.3,0.7-0.7,0.7H8.8l3.4,3.4c0.3,0.3,0.3,0.8,0,1c-0.3,0.3-0.7,0.3-1,0L6.6,17
	c-0.1-0.1-0.1-0.1-0.2-0.2c0-0.1-0.1-0.2-0.1-0.3c0-0.2,0.1-0.4,0.2-0.5l4.7-4.7C11.5,11,12,11,12.3,11.3L12.3,11.3z" />
</svg>
