<?xml version="1.0" encoding="utf-8"?>
<!-- Generator: Adobe Illustrator 25.4.1, SVG Export Plug-In . SVG Version: 6.00 Build 0)  -->
<svg version="1.1" id="Ebene_1" xmlns="http://www.w3.org/2000/svg" xmlns:xlink="http://www.w3.org/1999/xlink" x="0px" y="0px"
	 viewBox="0 0 22 22" style="enable-background:new 0 0 22 22;" xml:space="preserve">
<style type="text/css">
	.st0{fill:#222428;}
</style>
<path id="path-1_00000111901047157450123370000008743838109716656564_" class="st0" d="M12.7,4.8c-0.3,0.3-0.3,0.8,0,1l3.4,3.4H3.1
	c-0.4,0-0.7,0.3-0.7,0.7s0.3,0.7,0.7,0.7h13.1l-3.4,3.4c-0.3,0.3-0.3,0.8,0,1c0.3,0.3,0.7,0.3,1,0l4.7-4.7c0.1-0.1,0.1-0.1,0.2-0.2
	c0-0.1,0.1-0.2,0.1-0.3c0-0.2-0.1-0.4-0.2-0.5l-4.7-4.7C13.5,4.5,13,4.5,12.7,4.8L12.7,4.8z"/>
</svg>
