<?xml version="1.0" encoding="utf-8"?>
<!-- Generator: Adobe Illustrator 25.4.1, SVG Export Plug-In . SVG Version: 6.00 Build 0)  -->
<svg version="1.1" id="Ebene_1" xmlns="http://www.w3.org/2000/svg" xmlns:xlink="http://www.w3.org/1999/xlink" x="0px" y="0px"
	 viewBox="0 0 38 38" style="enable-background:new 0 0 38 38;" xml:space="preserve">
<style type="text/css">
	.st0{fill-rule:evenodd;clip-rule:evenodd;fill:#FFCC00;}
	.st1{fill:#FFFFFF;}
</style>
<circle id="Oval" class="st0" cx="19" cy="19" r="19"/>
<path id="star" class="st1" d="M25.6,28.3c0.2-0.1,0.3-0.3,0.3-0.6s0-0.5-0.1-0.9l-1.9-5.8l5-3.6c0.3-0.2,0.5-0.4,0.6-0.6
	s0.1-0.4,0.1-0.7c-0.1-0.2-0.2-0.4-0.4-0.5s-0.5-0.2-0.9-0.2l-6.1,0l-1.8-5.8c-0.1-0.3-0.3-0.6-0.4-0.8s-0.4-0.3-0.6-0.3
	c-0.2,0-0.4,0.1-0.6,0.3s-0.3,0.4-0.4,0.8l-1.8,5.8l-6.1,0c-0.4,0-0.6,0-0.9,0.2S9,16,9,16.2c-0.1,0.2-0.1,0.5,0.1,0.7
	s0.3,0.4,0.6,0.6l5,3.6l-1.9,5.8c-0.1,0.3-0.2,0.6-0.1,0.9s0.2,0.4,0.3,0.6c0.2,0.1,0.4,0.2,0.6,0.2s0.5-0.2,0.8-0.4l4.9-3.6
	l4.9,3.6c0.3,0.2,0.5,0.3,0.8,0.4S25.4,28.5,25.6,28.3z"/>
</svg>
