<?xml version="1.0" encoding="utf-8"?>
<svg version="1.1" id="Ebene_1" xmlns="http://www.w3.org/2000/svg" xmlns:xlink="http://www.w3.org/1999/xlink" x="0px" y="0px" viewBox="0 0 30 30" xml:space="preserve">
  <path d="M24.4,15c0-1.2,0.8-2.3,1.9-2.7
	C26,11.1,25.5,10,24.9,9c-0.4,0.2-0.8,0.3-1.2,0.3c-0.7,0-1.5-0.3-2-0.8c-0.9-0.9-1.1-2.2-0.6-3.2c-1-0.6-2.1-1.1-3.3-1.4
	c-0.4,1.1-1.5,1.9-2.7,1.9s-2.3-0.8-2.7-1.9C11.1,4,10,4.5,9,5.1c0.5,1.1,0.3,2.3-0.6,3.2C7.8,8.9,7,9.2,6.3,9.2
	C5.9,9.2,5.5,9.1,5.1,9c-0.6,1-1.1,2.2-1.4,3.4c1.1,0.4,1.9,1.5,1.9,2.7c0,1.2-0.8,2.3-1.9,2.7C4,18.9,4.5,20,5.1,21.1
	c0.4-0.2,0.8-0.2,1.2-0.2c0.7,0,1.5,0.3,2,0.8c0.9,0.9,1.1,2.2,0.6,3.2c1,0.6,2.2,1.1,3.3,1.4c0.4-1.1,1.5-1.9,2.7-1.9
	s2.3,0.8,2.7,1.9c1.2-0.3,2.3-0.8,3.3-1.4c-0.5-1.1-0.3-2.3,0.6-3.2c0.6-0.6,1.3-0.8,2-0.8c0.4,0,0.8,0.1,1.2,0.2
	c0.6-1,1.1-2.2,1.4-3.3C25.2,17.3,24.4,16.2,24.4,15z M15.1,19.7c-2.6,0-4.7-2.1-4.7-4.7s2.1-4.7,4.7-4.7s4.7,2.1,4.7,4.7
	S17.6,19.7,15.1,19.7z" />
</svg>
