<?xml version="1.0" encoding="utf-8"?>
<svg version="1.1" id="Ebene_1" xmlns="http://www.w3.org/2000/svg" xmlns:xlink="http://www.w3.org/1999/xlink" x="0px" y="0px" viewBox="0 0 30 30" xml:space="preserve">
  <path d="M27.1,11.2h-8.6l-2.6-7.8
	c-0.1-0.4-0.5-0.6-0.9-0.6s-0.8,0.2-0.9,0.6l-2.6,7.8H2.8c-0.5,0-0.9,0.4-0.9,0.9c0,0.1,0,0.1,0,0.2c0,0.2,0.1,0.4,0.4,0.7l7.1,5
	l-2.7,7.9c-0.1,0.4,0,0.8,0.3,1.1c0.2,0.1,0.3,0.2,0.5,0.2c0.2,0,0.4-0.1,0.6-0.2L15,22l6.9,4.9c0.2,0.1,0.4,0.2,0.6,0.2
	c0.2,0,0.4-0.1,0.5-0.2c0.3-0.2,0.5-0.7,0.3-1.1L20.6,18l7-5l0.2-0.1c0.2-0.2,0.3-0.4,0.3-0.6C28.1,11.7,27.6,11.2,27.1,11.2z
	 M19.7,16.7c-0.6,0.4-0.8,1.2-0.6,1.9l1.8,5.1c0.1,0.2-0.2,0.4-0.4,0.3l-4.5-3.2c-0.3-0.2-0.6-0.3-1-0.3s-0.7,0.1-0.9,0.3l-4.5,3.2
	c-0.2,0.1-0.4-0.1-0.4-0.3l1.8-5.1c0.2-0.7,0-1.5-0.6-1.9l-4.7-3.3c-0.2-0.1-0.1-0.4,0.1-0.4h5.8c0.7,0,1.3-0.5,1.6-1.1l1.7-5.2
	c0.1-0.2,0.4-0.2,0.4,0l1.7,5.2c0.2,0.7,0.8,1.1,1.6,1.1h5.7c0.2,0,0.3,0.3,0.1,0.4L19.7,16.7L19.7,16.7z" />
</svg>
