<?xml version="1.0" encoding="utf-8"?>
<svg version="1.1" id="Ebene_1" xmlns="http://www.w3.org/2000/svg" xmlns:xlink="http://www.w3.org/1999/xlink" x="0px" y="0px" viewBox="0 0 30 30" style="enable-background:new 0 0 30 30;" xml:space="preserve">
  <path d="M17.7,26.3l-0.3-0.4c-0.2-0.4-0.5-0.7-0.9-0.9c-1-0.7-2.3-0.7-3.3,0c-0.3,0.2-0.6,0.6-0.9,0.9l-0.3,0.4
	l-0.5-0.1c-0.8-0.2-1.6-0.6-2.3-1L9,24.9l0.1-0.5c0.1-0.4,0.1-0.8,0-1.3c-0.1-0.6-0.4-1.1-0.8-1.5c-0.7-0.7-1.8-1-2.8-0.8L5.1,21
	l-0.2-0.4c-0.4-0.7-0.7-1.5-1-2.3l-0.1-0.5l0.4-0.3c0.4-0.2,0.7-0.5,0.9-0.9c0.3-0.5,0.5-1,0.5-1.6c0-0.6-0.2-1.2-0.5-1.6
	c-0.2-0.3-0.6-0.6-0.9-0.9l-0.4-0.3l0.1-0.5c0.2-0.8,0.6-1.6,1-2.3L5.1,9l0.5,0.1c1,0.3,2,0,2.8-0.8C8.8,7.9,9,7.4,9.2,6.8
	c0.1-0.4,0.1-0.8,0-1.3L9,5.1l0.4-0.2c0.7-0.4,1.5-0.7,2.3-1l0.5-0.1l0.3,0.4c0.2,0.4,0.5,0.7,0.9,0.9c1,0.7,2.3,0.7,3.3,0
	c0.3-0.2,0.6-0.6,0.9-0.9l0.3-0.4l0.5,0.1c0.8,0.2,1.6,0.6,2.3,1L21,5.1l-0.1,0.5c-0.1,0.4-0.1,0.8,0,1.3c0.1,0.6,0.4,1.1,0.8,1.5
	c0.7,0.7,1.8,1,2.8,0.7L24.9,9l0.2,0.4c0.4,0.7,0.7,1.5,1,2.3l0.1,0.5l-0.4,0.3c-0.4,0.2-0.7,0.5-0.9,0.9c-0.3,0.5-0.5,1-0.5,1.6
	c0,0.6,0.2,1.2,0.5,1.6c0.2,0.3,0.6,0.6,0.9,0.9l0.4,0.3l-0.1,0.5c-0.2,0.8-0.6,1.6-1,2.3L24.9,21l-0.5-0.1c-1-0.3-2,0-2.8,0.8
	c-0.4,0.4-0.7,0.9-0.8,1.5c-0.1,0.4-0.1,0.8,0,1.2l0.1,0.5l-0.4,0.2c-0.7,0.4-1.5,0.7-2.3,1L17.7,26.3z M15,23.1
	c0.9,0,1.7,0.3,2.4,0.7c0.4,0.2,0.7,0.5,0.9,0.9c0.4-0.1,0.8-0.3,1.2-0.5c-0.1-0.4,0-0.9,0-1.3c0.2-0.8,0.6-1.6,1.2-2.2
	c0.9-0.9,2.2-1.4,3.5-1.2c0.2-0.4,0.4-0.8,0.5-1.2c-0.3-0.3-0.6-0.6-0.9-0.9c-0.5-0.7-0.7-1.5-0.7-2.4c0-0.9,0.3-1.7,0.7-2.4
	c0.2-0.4,0.5-0.7,0.9-0.9c-0.1-0.4-0.3-0.8-0.5-1.2c-1.3,0.2-2.6-0.3-3.5-1.2c-0.6-0.6-1-1.4-1.2-2.2c-0.1-0.4-0.1-0.9,0-1.3
	c-0.4-0.2-0.8-0.4-1.2-0.5c-0.3,0.3-0.6,0.6-0.9,0.9c-1.4,1-3.3,1-4.7,0c-0.4-0.2-0.7-0.5-0.9-0.9c-0.4,0.1-0.8,0.3-1.2,0.5
	c0.1,0.4,0,0.9,0,1.3c-0.2,0.8-0.6,1.6-1.2,2.2c-0.9,0.9-2.2,1.4-3.5,1.2c-0.2,0.4-0.4,0.8-0.5,1.2c0.3,0.3,0.6,0.6,0.9,0.9
	c0.5,0.7,0.7,1.5,0.7,2.4c0,0.8-0.3,1.7-0.7,2.4c-0.2,0.4-0.5,0.7-0.9,0.9c0.1,0.4,0.3,0.8,0.5,1.2c1.3-0.2,2.6,0.3,3.5,1.2
	c0.6,0.6,1,1.4,1.2,2.2c0.1,0.4,0.1,0.9,0,1.3c0.4,0.2,0.8,0.4,1.2,0.5c0.3-0.3,0.6-0.6,0.9-0.9C13.3,23.4,14.1,23.1,15,23.1z
	 M15.1,21c-1.6,0-3.1-0.6-4.2-1.8c-1.1-1.1-1.8-2.6-1.8-4.2c0-1.6,0.6-3.1,1.8-4.2C11.9,9.6,13.5,9,15.1,9c1.6,0,3.1,0.6,4.2,1.8
	c1.1,1.1,1.8,2.6,1.8,4.2s-0.6,3.1-1.8,4.2C18.2,20.4,16.7,21,15.1,21z M15.1,10.3c-1.3,0-2.4,0.5-3.3,1.4c-0.9,0.9-1.4,2.1-1.4,3.3
	s0.5,2.4,1.4,3.3c0.9,0.9,2.1,1.4,3.3,1.4c1.3,0,2.4-0.5,3.3-1.4c0.9-0.9,1.4-2.1,1.4-3.3s-0.5-2.4-1.4-3.3
	C17.5,10.8,16.3,10.3,15.1,10.3z" />
</svg>
