<?xml version="1.0" encoding="utf-8"?>
<svg version="1.1" id="Ebene_1" xmlns="http://www.w3.org/2000/svg" xmlns:xlink="http://www.w3.org/1999/xlink" x="0px" y="0px" viewBox="0 0 30 30" style="enable-background:new 0 0 30 30;" xml:space="preserve">
  <path d="M26,24.6l-6.3-6.3c1.2-1.5,2-3.5,2-5.6
	c0-5-4-9-9-9s-9,4-9,9s4,9,9,9c2.1,0,4.1-0.8,5.7-2l6.2,6.3c0.2,0.2,0.4,0.3,0.7,0.3c0.2,0,0.5-0.1,0.7-0.3
	C26.3,25.6,26.3,25,26,24.6z M12.7,19.8c-1.9,0-3.7-0.7-5-2.1s-2.1-3.1-2.1-5c0-1.9,0.7-3.7,2.1-5c1.3-1.3,3.1-2.1,5-2.1
	s3.7,0.7,5,2.1s2.1,3.1,2.1,5c0,1.9-0.7,3.7-2.1,5C16.4,19,14.6,19.8,12.7,19.8z" />
</svg>
